<mxfile host="app.diagrams.net" agent="Mozilla/5.0 (Macintosh; Intel Mac OS X 10_15_7) AppleWebKit/605.1.15 (KHTML, like Gecko) Version/18.5 Safari/605.1.15" version="27.1.6">
  <diagram name="Page-1" id="7OqLYDZY5_7IbWKKEerW">
    <mxGraphModel dx="4132" dy="2820" grid="1" gridSize="10" guides="1" tooltips="1" connect="1" arrows="1" fold="1" page="1" pageScale="1" pageWidth="850" pageHeight="1100" math="0" shadow="0">
      <root>
        <mxCell id="0" />
        <mxCell id="1" parent="0" />
        <mxCell id="gd6nRbizDPKqp0zHeRMK-1" value="" style="rounded=1;whiteSpace=wrap;html=1;" parent="1" vertex="1">
          <mxGeometry x="550" y="40" width="250" height="120" as="geometry" />
        </mxCell>
        <mxCell id="gd6nRbizDPKqp0zHeRMK-2" value="&lt;font style=&quot;font-size: 16px;&quot;&gt;Auth&lt;/font&gt;" style="text;html=1;align=center;verticalAlign=middle;resizable=0;points=[];autosize=1;strokeColor=none;fillColor=none;" parent="1" vertex="1">
          <mxGeometry x="645" y="60" width="60" height="30" as="geometry" />
        </mxCell>
        <mxCell id="gd6nRbizDPKqp0zHeRMK-3" value="- user should be able to self register&lt;div&gt;- user should be able to log in&lt;/div&gt;&lt;div&gt;- log out&lt;/div&gt;" style="text;html=1;align=left;verticalAlign=middle;resizable=0;points=[];autosize=1;strokeColor=none;fillColor=none;" parent="1" vertex="1">
          <mxGeometry x="570" y="90" width="210" height="60" as="geometry" />
        </mxCell>
        <mxCell id="h65bbhQGdJAUUI7zXYH0-1" value="" style="group" vertex="1" connectable="0" parent="1">
          <mxGeometry x="550" y="-130" width="250" height="120" as="geometry" />
        </mxCell>
        <mxCell id="gd6nRbizDPKqp0zHeRMK-4" value="" style="rounded=1;whiteSpace=wrap;html=1;" parent="h65bbhQGdJAUUI7zXYH0-1" vertex="1">
          <mxGeometry width="250" height="120" as="geometry" />
        </mxCell>
        <mxCell id="gd6nRbizDPKqp0zHeRMK-5" value="&lt;font style=&quot;font-size: 16px;&quot;&gt;LMS&lt;/font&gt;" style="text;html=1;align=center;verticalAlign=middle;resizable=0;points=[];autosize=1;strokeColor=none;fillColor=none;" parent="h65bbhQGdJAUUI7zXYH0-1" vertex="1">
          <mxGeometry x="95" y="20" width="60" height="30" as="geometry" />
        </mxCell>
        <mxCell id="gd6nRbizDPKqp0zHeRMK-6" value="- user should be able to self register&lt;div&gt;- user should be able to log in&lt;/div&gt;&lt;div&gt;- log out&lt;/div&gt;" style="text;html=1;align=left;verticalAlign=middle;resizable=0;points=[];autosize=1;strokeColor=none;fillColor=none;" parent="h65bbhQGdJAUUI7zXYH0-1" vertex="1">
          <mxGeometry x="20" y="50" width="210" height="60" as="geometry" />
        </mxCell>
        <mxCell id="h65bbhQGdJAUUI7zXYH0-2" value="" style="group" vertex="1" connectable="0" parent="1">
          <mxGeometry x="550" y="-310" width="250" height="120" as="geometry" />
        </mxCell>
        <mxCell id="h65bbhQGdJAUUI7zXYH0-3" value="" style="rounded=1;whiteSpace=wrap;html=1;" vertex="1" parent="h65bbhQGdJAUUI7zXYH0-2">
          <mxGeometry width="250" height="120" as="geometry" />
        </mxCell>
        <mxCell id="h65bbhQGdJAUUI7zXYH0-4" value="&lt;font style=&quot;font-size: 16px;&quot;&gt;Blogs&lt;/font&gt;" style="text;html=1;align=center;verticalAlign=middle;resizable=0;points=[];autosize=1;strokeColor=none;fillColor=none;" vertex="1" parent="h65bbhQGdJAUUI7zXYH0-2">
          <mxGeometry x="95" y="20" width="60" height="30" as="geometry" />
        </mxCell>
        <mxCell id="h65bbhQGdJAUUI7zXYH0-6" value="" style="group" vertex="1" connectable="0" parent="1">
          <mxGeometry x="550" y="-480" width="250" height="120" as="geometry" />
        </mxCell>
        <mxCell id="h65bbhQGdJAUUI7zXYH0-7" value="" style="rounded=1;whiteSpace=wrap;html=1;" vertex="1" parent="h65bbhQGdJAUUI7zXYH0-6">
          <mxGeometry width="250" height="120" as="geometry" />
        </mxCell>
        <mxCell id="h65bbhQGdJAUUI7zXYH0-8" value="&lt;font style=&quot;font-size: 16px;&quot;&gt;Contact Us &amp;amp; Subscribe&lt;/font&gt;" style="text;html=1;align=center;verticalAlign=middle;resizable=0;points=[];autosize=1;strokeColor=none;fillColor=none;" vertex="1" parent="h65bbhQGdJAUUI7zXYH0-6">
          <mxGeometry x="30" y="20" width="190" height="30" as="geometry" />
        </mxCell>
        <mxCell id="h65bbhQGdJAUUI7zXYH0-10" value="" style="group" vertex="1" connectable="0" parent="1">
          <mxGeometry x="550" y="-660" width="250" height="120" as="geometry" />
        </mxCell>
        <mxCell id="h65bbhQGdJAUUI7zXYH0-11" value="" style="rounded=1;whiteSpace=wrap;html=1;" vertex="1" parent="h65bbhQGdJAUUI7zXYH0-10">
          <mxGeometry width="250" height="120" as="geometry" />
        </mxCell>
        <mxCell id="h65bbhQGdJAUUI7zXYH0-12" value="&lt;font style=&quot;font-size: 16px;&quot;&gt;Payment Gateway Integration&lt;/font&gt;" style="text;html=1;align=center;verticalAlign=middle;resizable=0;points=[];autosize=1;strokeColor=none;fillColor=none;" vertex="1" parent="h65bbhQGdJAUUI7zXYH0-10">
          <mxGeometry x="10" y="20" width="230" height="30" as="geometry" />
        </mxCell>
        <mxCell id="h65bbhQGdJAUUI7zXYH0-14" value="" style="group" vertex="1" connectable="0" parent="1">
          <mxGeometry x="550" y="-830" width="250" height="120" as="geometry" />
        </mxCell>
        <mxCell id="h65bbhQGdJAUUI7zXYH0-15" value="" style="rounded=1;whiteSpace=wrap;html=1;" vertex="1" parent="h65bbhQGdJAUUI7zXYH0-14">
          <mxGeometry width="250" height="120" as="geometry" />
        </mxCell>
        <mxCell id="h65bbhQGdJAUUI7zXYH0-16" value="&lt;font style=&quot;font-size: 16px;&quot;&gt;Subscription Management&lt;/font&gt;" style="text;html=1;align=center;verticalAlign=middle;resizable=0;points=[];autosize=1;strokeColor=none;fillColor=none;" vertex="1" parent="h65bbhQGdJAUUI7zXYH0-14">
          <mxGeometry x="20" y="20" width="210" height="30" as="geometry" />
        </mxCell>
        <mxCell id="h65bbhQGdJAUUI7zXYH0-17" value="" style="group" vertex="1" connectable="0" parent="1">
          <mxGeometry x="550" y="220" width="250" height="120" as="geometry" />
        </mxCell>
        <mxCell id="h65bbhQGdJAUUI7zXYH0-18" value="" style="rounded=1;whiteSpace=wrap;html=1;" vertex="1" parent="h65bbhQGdJAUUI7zXYH0-17">
          <mxGeometry width="250" height="120" as="geometry" />
        </mxCell>
        <mxCell id="h65bbhQGdJAUUI7zXYH0-19" value="&lt;font style=&quot;font-size: 16px;&quot;&gt;User Management&lt;/font&gt;" style="text;html=1;align=center;verticalAlign=middle;resizable=0;points=[];autosize=1;strokeColor=none;fillColor=none;" vertex="1" parent="h65bbhQGdJAUUI7zXYH0-17">
          <mxGeometry x="45" y="20" width="160" height="30" as="geometry" />
        </mxCell>
        <mxCell id="h65bbhQGdJAUUI7zXYH0-20" value="" style="group" vertex="1" connectable="0" parent="1">
          <mxGeometry x="550" y="390" width="250" height="120" as="geometry" />
        </mxCell>
        <mxCell id="h65bbhQGdJAUUI7zXYH0-21" value="" style="rounded=1;whiteSpace=wrap;html=1;" vertex="1" parent="h65bbhQGdJAUUI7zXYH0-20">
          <mxGeometry width="250" height="120" as="geometry" />
        </mxCell>
        <mxCell id="h65bbhQGdJAUUI7zXYH0-22" value="&lt;font style=&quot;font-size: 16px;&quot;&gt;UI &amp;amp; Content Management&lt;/font&gt;" style="text;html=1;align=center;verticalAlign=middle;resizable=0;points=[];autosize=1;strokeColor=none;fillColor=none;" vertex="1" parent="h65bbhQGdJAUUI7zXYH0-20">
          <mxGeometry x="20" y="20" width="210" height="30" as="geometry" />
        </mxCell>
      </root>
    </mxGraphModel>
  </diagram>
</mxfile>
